<svg width="197" height="19" viewBox="0 0 197 19" fill="none" xmlns="http://www.w3.org/2000/svg">
<path fill-rule="evenodd" clip-rule="evenodd" d="M12.8774 10.6168C12.2518 9.82667 11.4534 9.34105 10.4822 9.15997C11.3711 8.88011 12.079 8.40272 12.6057 7.72778C13.149 7.05284 13.4206 6.21329 13.4206 5.20911C13.4206 4.35309 13.1984 3.58761 12.7539 2.91268C12.3259 2.23774 11.6839 1.71096 10.8279 1.33233C9.9883 0.953711 8.98413 0.764399 7.81534 0.764399H0.703796V18H8.13634C9.30514 18 10.3175 17.8025 11.1736 17.4074C12.0296 17.0123 12.6798 16.469 13.1243 15.7776C13.5852 15.0698 13.8157 14.2549 13.8157 13.3331C13.8157 12.3124 13.5029 11.407 12.8774 10.6168ZM7.32148 7.87594H4.16079V3.55469H7.32148C8.14457 3.55469 8.77836 3.744 9.22283 4.12263C9.6673 4.50125 9.88953 5.03626 9.88953 5.72766C9.88953 6.41906 9.6673 6.95407 9.22283 7.3327C8.77836 7.69486 8.14457 7.87594 7.32148 7.87594ZM9.59322 14.5924C9.13229 14.9875 8.48204 15.185 7.64248 15.185H4.16079V10.5428H7.56841C8.40796 10.5428 9.07467 10.7568 9.56853 11.1848C10.0624 11.5963 10.3093 12.1725 10.3093 12.9133C10.3093 13.6376 10.0706 14.1973 9.59322 14.5924ZM20.1266 17.037C21.4765 17.7942 22.9581 18.1729 24.5714 18.1729C26.1846 18.1729 27.6662 17.7942 29.0161 17.037C30.3659 16.2797 31.4277 15.2344 32.2014 13.901C32.9916 12.5511 33.3867 11.0284 33.3867 9.33282C33.3867 7.6537 32.9916 6.14744 32.2014 4.81402C31.4277 3.46415 30.3659 2.41059 29.0161 1.65334C27.6827 0.896094 26.2011 0.517471 24.5714 0.517471C22.9581 0.517471 21.4765 0.896094 20.1266 1.65334C18.7768 2.41059 17.7067 3.46415 16.9166 4.81402C16.1264 6.14744 15.7313 7.6537 15.7313 9.33282C15.7313 11.0284 16.1264 12.5511 16.9166 13.901C17.7067 15.2344 18.7768 16.2797 20.1266 17.037ZM27.3123 14.3948C26.5221 14.8558 25.6085 15.0862 24.5714 15.0862C23.5343 15.0862 22.6124 14.8558 21.8058 14.3948C21.0156 13.9175 20.3983 13.2425 19.9538 12.37C19.5093 11.4976 19.2871 10.4851 19.2871 9.33282C19.2871 8.18048 19.5093 7.17631 19.9538 6.32029C20.3983 5.44781 21.0156 4.7811 21.8058 4.32017C22.6124 3.85924 23.5343 3.62877 24.5714 3.62877C25.6085 3.62877 26.5221 3.85924 27.3123 4.32017C28.1024 4.7811 28.7198 5.44781 29.1642 6.32029C29.6087 7.17631 29.8309 8.18048 29.8309 9.33282C29.8309 10.4851 29.6087 11.4976 29.1642 12.37C28.7198 13.2425 28.1024 13.9175 27.3123 14.3948ZM39.5144 17.037C40.8643 17.7942 42.3458 18.1729 43.9591 18.1729C45.5724 18.1729 47.0539 17.7942 48.4038 17.037C49.7537 16.2797 50.8155 15.2344 51.5892 13.901C52.3794 12.5511 52.7744 11.0284 52.7744 9.33282C52.7744 7.6537 52.3794 6.14744 51.5892 4.81402C50.8155 3.46415 49.7537 2.41059 48.4038 1.65334C47.0704 0.896094 45.5888 0.517471 43.9591 0.517471C42.3458 0.517471 40.8643 0.896094 39.5144 1.65334C38.1645 2.41059 37.0945 3.46415 36.3043 4.81402C35.5141 6.14744 35.1191 7.6537 35.1191 9.33282C35.1191 11.0284 35.5141 12.5511 36.3043 13.901C37.0945 15.2344 38.1645 16.2797 39.5144 17.037ZM46.7 14.3948C45.9098 14.8558 44.9962 15.0862 43.9591 15.0862C42.922 15.0862 42.0001 14.8558 41.1935 14.3948C40.4033 13.9175 39.786 13.2425 39.3415 12.37C38.8971 11.4976 38.6748 10.4851 38.6748 9.33282C38.6748 8.18048 38.8971 7.17631 39.3415 6.32029C39.786 5.44781 40.4033 4.7811 41.1935 4.32017C42.0001 3.85924 42.922 3.62877 43.9591 3.62877C44.9962 3.62877 45.9098 3.85924 46.7 4.32017C47.4902 4.7811 48.1075 5.44781 48.552 6.32029C48.9964 7.17631 49.2187 8.18048 49.2187 9.33282C49.2187 10.4851 48.9964 11.4976 48.552 12.37C48.1075 13.2425 47.4902 13.9175 46.7 14.3948ZM58.8034 10.3205L65.0753 18H69.446L62.1369 9.30812L69.2484 0.764399H65.0753L58.8034 8.49326V0.764399H55.3464V18H58.8034V10.3205ZM74.4113 17.5555C75.3826 17.9671 76.4691 18.1729 77.6708 18.1729C78.9384 18.1729 80.0331 17.9424 80.9549 17.4815C81.8768 17.0041 82.5764 16.3703 83.0538 15.5801C83.5312 14.7899 83.7699 13.9339 83.7699 13.012C83.7699 11.942 83.5148 11.0778 83.0045 10.4193C82.4941 9.76082 81.885 9.26697 81.1772 8.93773C80.4693 8.60849 79.5557 8.27925 78.4363 7.95002C77.6132 7.70309 76.9712 7.48908 76.5102 7.308C76.0658 7.11046 75.6871 6.86353 75.3744 6.56722C75.0781 6.25444 74.9299 5.86759 74.9299 5.40665C74.9299 4.74818 75.1274 4.24609 75.5225 3.90039C75.9341 3.55469 76.4773 3.38184 77.1523 3.38184C77.926 3.38184 78.5433 3.57938 79.0042 3.97447C79.4816 4.35309 79.7368 4.83872 79.7697 5.43135H83.5724C83.4572 3.88393 82.8398 2.68221 81.7204 1.82619C80.6175 0.953711 79.1771 0.517471 77.3992 0.517471C76.2139 0.517471 75.1604 0.723245 74.2385 1.13479C73.3166 1.52988 72.6005 2.10604 72.0902 2.86329C71.5799 3.62054 71.3247 4.50948 71.3247 5.53012C71.3247 6.6166 71.5717 7.48908 72.0655 8.14756C72.5758 8.78957 73.1767 9.2752 73.8681 9.60444C74.576 9.91721 75.4896 10.2382 76.609 10.5675C77.4321 10.7979 78.0741 11.0119 78.535 11.2095C79.0124 11.3906 79.4075 11.6457 79.7203 11.9749C80.0331 12.3042 80.1895 12.724 80.1895 13.2343C80.1895 13.8598 79.959 14.3702 79.4981 14.7652C79.0371 15.1439 78.4034 15.3332 77.5967 15.3332C76.8066 15.3332 76.181 15.1274 75.7201 14.7159C75.2756 14.3043 75.0287 13.7446 74.9793 13.0367H71.2754C71.2918 14.0903 71.5799 15.0039 72.1396 15.7776C72.6993 16.5514 73.4566 17.144 74.4113 17.5555ZM90.224 7.87594V3.55469H96.7676V0.739705H86.767V18H96.7676V15.185H90.224V10.6168H96.0268V7.87594H90.224ZM102.477 18L103.613 14.7159H110.478L111.614 18H115.268L109.07 0.739705H105.045L98.8474 18H102.477ZM107.045 4.73995L109.539 11.9503H104.551L107.045 4.73995ZM122.672 11.2835L126.474 18H130.475L126.351 11.0119C127.651 10.6662 128.631 10.0407 129.289 9.13527C129.948 8.21341 130.277 7.18454 130.277 6.04867C130.277 5.06095 130.038 4.17201 129.561 3.38184C129.1 2.57521 128.4 1.94142 127.462 1.48049C126.524 1.0031 125.388 0.764399 124.054 0.764399H117.585V18H121.042V11.2835H122.672ZM123.931 8.6908H121.042V3.62877H123.931C124.869 3.62877 125.569 3.851 126.03 4.29548C126.491 4.72348 126.721 5.33257 126.721 6.12275C126.721 6.92938 126.491 7.56316 126.03 8.02409C125.569 8.46857 124.869 8.6908 123.931 8.6908ZM133.7 4.81402C132.943 6.14744 132.564 7.66193 132.564 9.35751C132.564 11.0531 132.943 12.5676 133.7 13.901C134.474 15.2344 135.519 16.2797 136.836 17.037C138.169 17.7778 139.659 18.1482 141.305 18.1482C143.248 18.1482 144.935 17.6625 146.367 16.6913C147.816 15.7036 148.828 14.329 149.405 12.5676H145.429C145.034 13.3907 144.474 14.0162 143.75 14.4442C143.042 14.8558 142.219 15.0616 141.281 15.0616C140.277 15.0616 139.379 14.8311 138.589 14.3702C137.815 13.8928 137.206 13.2261 136.762 12.37C136.334 11.4976 136.12 10.4934 136.12 9.35751C136.12 8.20518 136.334 7.201 136.762 6.34498C137.206 5.48896 137.815 4.83049 138.589 4.36955C139.379 3.89216 140.277 3.65346 141.281 3.65346C142.219 3.65346 143.042 3.85923 143.75 4.27078C144.474 4.68233 145.034 5.29965 145.429 6.12275H149.405C148.828 4.37778 147.816 3.01145 146.367 2.02373C144.919 1.03602 143.231 0.542164 141.305 0.542164C139.659 0.542164 138.169 0.920787 136.836 1.67803C135.519 2.41882 134.474 3.46415 133.7 4.81402ZM166.655 18V0.764399H163.198V7.85124H155.814V0.764399H152.357V18H155.814V10.6662H163.198V18H166.655ZM173.514 7.87594V3.55469H180.058V0.739705H170.057V18H180.058V15.185H173.514V10.6168H179.317V7.87594H173.514ZM188.286 11.2835L192.089 18H196.089L191.965 11.0119C193.266 10.6662 194.245 10.0407 194.904 9.13527C195.562 8.21341 195.891 7.18454 195.891 6.04867C195.891 5.06095 195.653 4.17201 195.175 3.38184C194.714 2.57521 194.015 1.94142 193.076 1.48049C192.138 1.0031 191.002 0.764399 189.669 0.764399H183.199V18H186.656V11.2835H188.286ZM189.545 8.6908H186.656V3.62877H189.545C190.484 3.62877 191.183 3.851 191.644 4.29548C192.105 4.72348 192.336 5.33257 192.336 6.12275C192.336 6.92938 192.105 7.56316 191.644 8.02409C191.183 8.46857 190.484 8.6908 189.545 8.6908Z" fill="url(#paint0_linear_1_3)"/>
<defs>
<linearGradient id="paint0_linear_1_3" x1="3.50739" y1="16.2958" x2="194" y2="16.2958" gradientUnits="userSpaceOnUse">
<stop stop-color="#C44FA3"/>
<stop offset="1" stop-color="#F75960"/>
</linearGradient>
</defs>
</svg>
